<?xml version="1.0" encoding="UTF-8" standalone="no"?>
<svg width="192px" height="50px" viewBox="0 0 192 50" version="1.1" xmlns="http://www.w3.org/2000/svg" xmlns:xlink="http://www.w3.org/1999/xlink" xmlns:sketch="http://www.bohemiancoding.com/sketch/ns">
    <!-- Generator: Sketch 3.5.2 (25235) - http://www.bohemiancoding.com/sketch -->
    <title>Export - Outlines</title>
    <desc>Created with Sketch.</desc>
    <defs></defs>
    <g id="Page-1" stroke="none" stroke-width="1" fill="none" fill-rule="evenodd" sketch:type="MSPage">
        <g id="Export---Outlines" sketch:type="MSArtboardGroup" fill="#000000">
            <path d="M25,50 C38.8071187,50 50,38.8071187 50,25 C50,11.1928813 38.8071187,0 25,0 C11.1928813,0 0,11.1928813 0,25 C0,38.8071187 11.1928813,50 25,50 Z M25,40 C33.2842712,40 40,33.2842712 40,25 C40,16.7157288 33.2842712,10 25,10 C16.7157288,10 10,16.7157288 10,25 C10,33.2842712 16.7157288,40 25,40 Z" id="Oval-1" sketch:type="MSShapeGroup"></path>
            <path d="M79.904,25.136 C80.336,26.432 81.74,31.04 82.064,32.336 C82.28,33.272 81.956,33.632 80.984,33.632 L79.976,33.632 C79.796,33.632 79.76,33.776 79.76,33.956 L79.76,34.64 C79.76,34.892 79.796,35.108 80.156,35.108 C80.876,35.108 82.136,35 85.124,35 C89.732,35 90.488,35.108 91.172,35.108 C91.46,35.108 91.496,34.856 91.496,34.64 L91.496,33.956 C91.496,33.776 91.46,33.632 91.244,33.632 L90.02,33.632 C89.48,33.632 88.544,33.2 87.932,32.012 C87.428,31.04 85.088,24.344 84.26,21.536 C83.576,19.232 80.768,11.168 80.084,8.9 C79.976,8.504 79.904,8.288 79.688,8.288 C79.508,8.288 79.4,8.432 79.22,8.612 C78.68,9.224 76.34,10.16 75.188,10.412 C74.9,10.484 74.828,10.628 74.828,10.736 C74.828,10.88 74.972,11.06 75.08,11.204 C75.332,11.6 75.152,12.068 75.044,12.428 C74.72,13.4 71.804,21.14 71.516,21.86 C70.328,25.028 67.772,31.292 67.268,32.048 C66.548,33.128 65.684,33.632 64.82,33.632 L63.884,33.632 C63.668,33.632 63.632,33.74 63.632,33.956 L63.632,34.64 C63.632,34.892 63.668,35.108 63.884,35.108 C64.388,35.108 65.18,35 67.808,35 C70.76,35 72.236,35.108 72.704,35.108 C72.992,35.108 73.028,35 73.028,34.712 L73.028,33.92 C73.028,33.776 72.992,33.632 72.632,33.632 L71.372,33.632 C70.292,33.632 69.968,32.768 69.968,31.976 C69.968,30.824 71.732,25.892 72.02,25.136 L79.904,25.136 Z M72.488,23.696 C72.776,22.796 75.872,14.3 76.052,13.832 C76.16,13.508 76.268,13.364 76.484,13.364 C76.664,13.364 76.736,13.616 76.88,14.156 L79.58,23.696 L72.488,23.696 Z M99.848,19.376 C97.904,19.376 96.14,20.024 94.52,21.5 C92.612,23.264 91.82,25.892 91.82,28.34 C91.82,30.176 92.252,31.58 93.656,33.308 C94.808,34.748 96.608,35.504 99.308,35.504 C102.62,35.504 105.428,33.776 106.112,32.588 C106.22,32.408 106.256,32.264 106.148,32.12 L105.644,31.616 C105.536,31.472 105.428,31.544 105.248,31.652 C104.096,32.48 103.304,32.804 101.648,32.804 C100.028,32.804 98.696,32.336 97.796,30.716 C96.572,28.484 96.644,26.864 96.644,24.596 C96.644,22.328 98.048,20.924 99.02,20.924 C100.028,20.924 100.712,21.356 101.144,22.652 C101.432,23.552 102.224,24.56 103.736,24.56 C104.888,24.56 105.608,23.876 105.608,22.868 C105.608,21.752 104.564,19.376 99.848,19.376 L99.848,19.376 Z M125.624,34.1 C125.768,34.064 125.84,33.992 125.804,33.812 L125.696,33.128 C125.66,32.984 125.552,32.912 125.264,32.984 C124.832,33.092 124.292,33.092 124.076,33.092 C123.932,33.092 123.536,32.948 123.428,31.832 C123.356,31.184 123.356,29.42 123.356,27.692 L123.356,25.028 C123.356,21.392 123.536,20.456 123.572,20.132 C123.608,19.952 123.464,19.772 123.248,19.772 C123.14,19.772 122.996,19.808 122.816,19.808 C122.636,19.844 122.456,19.88 122.204,19.88 L116.84,19.88 C116.48,19.88 116.408,19.916 116.408,20.204 L116.408,20.888 C116.408,21.068 116.588,21.104 117.02,21.14 C117.92,21.212 118.568,21.5 118.568,22.4 L118.604,30.86 C118.604,31.22 118.352,31.796 118.028,32.156 C117.488,32.84 116.696,33.308 116.084,33.308 C115.436,33.308 114.86,33.38 114.32,32.552 C113.42,31.148 113.636,28.448 113.636,27.008 L113.636,25.064 C113.636,22.22 113.744,20.528 113.78,20.204 C113.816,19.952 113.636,19.772 113.384,19.772 C113.276,19.772 113.132,19.808 112.988,19.808 C112.844,19.844 112.7,19.88 112.484,19.88 L107.228,19.88 C106.904,19.88 106.832,19.952 106.832,20.168 L106.832,20.888 C106.832,21.068 107.012,21.032 107.624,21.14 C108.056,21.212 108.812,21.536 108.848,22.4 C108.884,23.192 108.884,24.632 108.884,26 L108.848,27.584 C108.848,30.68 108.704,31.832 110.216,33.848 C111.476,35.504 112.556,35.504 113.996,35.504 C115.94,35.504 118.028,34.388 118.748,33.128 L118.964,33.128 L119.18,35.072 C119.216,35.324 119.432,35.504 119.792,35.504 C120.116,35.504 120.368,35.432 120.584,35.36 L125.624,34.1 Z M127.136,21.68 C126.992,21.752 126.92,21.896 126.92,22.004 L126.92,22.436 C126.92,22.544 126.992,22.616 127.172,22.724 L127.892,23.156 C128.792,23.696 129.044,24.272 129.044,25.856 L129.044,30.392 C129.044,31.328 129.044,32.228 129.008,32.84 C128.972,33.344 128.684,33.74 128.324,33.74 L127.316,33.74 C126.92,33.74 126.884,33.776 126.884,34.064 L126.884,34.784 C126.884,35.036 126.956,35.108 127.172,35.108 C127.46,35.108 128.612,35 131.024,35 C133.58,35 134.552,35.108 134.876,35.108 C135.128,35.108 135.164,34.964 135.164,34.712 L135.164,34.064 C135.164,33.812 135.128,33.74 134.804,33.74 L134.48,33.74 C134.084,33.74 133.724,33.38 133.724,31.544 L133.724,25.748 C133.688,24.38 133.832,23.552 134.3,22.832 C134.732,22.22 135.56,21.716 136.28,21.716 C137.072,21.716 137.648,21.824 137.972,22.148 C138.404,22.544 138.764,23.372 138.764,25.856 L138.764,31.184 C138.764,33.272 138.404,33.74 137.9,33.74 L137.396,33.74 C137.072,33.74 137.036,33.812 137.036,34.1 L137.036,34.748 C137.036,35 137.108,35.108 137.288,35.108 C137.504,35.108 138.728,35 141.392,35 C143.588,35 144.524,35.108 144.776,35.108 C144.956,35.108 145.028,35 145.028,34.712 L145.028,34.064 C145.028,33.812 144.956,33.74 144.632,33.74 L143.984,33.74 C143.588,33.74 143.372,33.38 143.372,32.336 L143.372,25.208 C143.372,24.704 143.372,23.552 143.912,22.94 C144.344,22.544 145.064,21.788 146.072,21.788 C146.9,21.788 147.26,22.004 147.836,22.652 C148.304,23.156 148.412,23.912 148.412,26.144 L148.412,29.6 C148.412,30.932 148.304,32.228 148.232,33.056 C148.196,33.56 147.764,33.74 147.512,33.74 L147.188,33.74 C147.08,33.74 146.972,33.812 146.972,34.064 L146.972,34.676 C146.972,35 147.044,35.108 147.26,35.108 C147.512,35.108 148.808,35 150.968,35 C153.596,35 154.604,35.108 154.856,35.108 C155.036,35.108 155.108,35 155.108,34.748 L155.108,34.064 C155.108,33.812 155.036,33.74 154.712,33.74 L153.992,33.74 C153.416,33.74 152.912,33.344 152.948,32.336 C152.984,31.58 153.092,29.6 153.092,28.376 L153.092,25.784 C153.092,22.22 152.588,21.896 151.544,20.852 C150.428,19.7 149.672,19.484 148.052,19.484 C146.216,19.484 144.452,20.456 143.228,21.896 L143.048,21.896 C142.112,20.42 140.996,19.376 138.692,19.376 C136.424,19.376 134.588,20.492 133.58,21.896 L133.4,21.896 L133.112,19.844 C133.04,19.484 132.824,19.376 132.608,19.376 C132.356,19.376 132.104,19.484 131.78,19.628 L127.136,21.68 Z M169.76,26.036 C170.552,26.036 170.876,26 170.876,25.532 C170.876,24.956 170.552,19.376 164.72,19.376 C161.948,19.376 159.752,20.42 158.456,22.328 C156.836,24.704 156.836,26.612 156.836,27.62 C156.872,30.428 157.484,31.832 159.32,33.812 C160.508,35.108 162.416,35.504 164.72,35.504 C168.104,35.504 170.444,33.02 171.092,31.688 C171.416,31.076 171.308,30.896 171.164,30.824 L170.552,30.5 C170.408,30.392 170.264,30.428 170.192,30.608 C169.472,31.76 168.032,32.588 166.268,32.588 C163.64,32.588 161.516,30.752 161.516,27.008 L161.516,26.036 L169.76,26.036 Z M161.552,24.668 C161.804,22.148 162.704,20.816 164.396,20.816 C165.512,20.816 166.16,22.364 166.16,23.948 C166.16,24.488 165.8,24.668 165.008,24.668 L161.552,24.668 Z M179.156,19.808 C179.084,19.556 178.868,19.376 178.652,19.376 C178.364,19.376 178.112,19.52 177.824,19.628 L173.216,21.716 C173.036,21.788 172.892,21.896 172.892,22.076 L172.892,22.4 C172.892,22.544 172.928,22.688 173.144,22.796 L173.468,22.94 C174.296,23.336 174.908,23.948 174.908,25.028 L174.908,33.02 C174.908,33.632 174.296,33.74 173.9,33.74 L173.36,33.74 C173.072,33.74 173,33.848 173,34.064 L173,34.784 C173,35 173.072,35.108 173.252,35.108 C173.468,35.108 174.62,35 177.176,35 C179.552,35 180.524,35.108 180.776,35.108 C180.956,35.108 181.028,35 181.028,34.784 L181.028,34.1 C181.028,33.848 180.956,33.74 180.668,33.74 L180.2,33.74 C179.876,33.74 179.624,33.2 179.624,32.552 L179.696,25.172 C179.696,23.696 179.984,22.724 180.416,22.4 C181.136,21.86 181.604,21.68 182.252,21.68 C182.864,21.68 183.368,21.752 184.016,22.328 C184.772,23.012 184.88,23.948 184.88,25.316 L184.88,29.168 C184.88,30.824 184.808,31.976 184.664,32.912 C184.592,33.56 184.268,33.74 184.016,33.74 L183.62,33.74 C183.26,33.74 183.152,33.812 183.152,34.064 L183.152,34.712 C183.152,35 183.224,35.108 183.44,35.108 C183.692,35.108 184.844,35 187.22,35 C190.1,35 191.216,35.108 191.468,35.108 C191.684,35.108 191.756,34.964 191.756,34.712 L191.756,34.064 C191.756,33.848 191.684,33.74 191.36,33.74 L190.388,33.74 C190.064,33.74 189.488,33.56 189.524,32.48 C189.596,31.22 189.668,29.528 189.668,28.304 L189.668,24.488 C189.668,22.688 189.56,21.788 188.048,20.384 C187.112,19.52 185.744,19.376 184.34,19.376 C183.152,19.376 182.36,19.628 181.568,20.06 C180.884,20.42 180.236,20.888 179.84,21.356 L179.552,21.356 L179.156,19.808 Z" id="Acumen" sketch:type="MSShapeGroup"></path>
        </g>
    </g>
</svg>