<?xml version="1.0" encoding="UTF-8" standalone="no"?>
<svg width="24px" height="24px" viewBox="0 0 24 24" version="1.1" xmlns="http://www.w3.org/2000/svg" xmlns:xlink="http://www.w3.org/1999/xlink">
    <!-- Generator: Sketch 3.8.3 (29802) - http://www.bohemiancoding.com/sketch -->
    <title>account</title>
    <desc>Created with Sketch.</desc>
    <defs></defs>
    <g id="Page-1" stroke="none" stroke-width="1" fill="none" fill-rule="evenodd">
        <g id="account" fill="#FFFFFF">
            <path d="M12.0990991,1.02380261 C11.3063063,1.02380261 10.2263766,0.723513587 8.68018018,2.25611271 C7.13398377,3.78871183 7.54054054,5.5422731 7.54054054,5.5422731 L7.73873874,6.97996825 C7.73873874,6.97996825 7.34234234,7.2110264 7.34234234,7.95554711 C7.73873874,9.6499739 7.78311191,8.99335538 8.13513514,9.64997355 C8.48715836,10.3065917 8.92792793,13.1928652 9.52252252,13.552289 C9.85698198,14.1812802 9.52252252,16.0169092 9.52252252,16.0169092 C9.52252252,16.0169092 8.13513514,17.4802775 7.19369369,17.7113357 C6.25225225,17.9423938 2.80855856,18.5585485 2.38738739,19.0976846 C1.10904098,20.7340803 1,23 1,23 L12,23 L23,23 C23,23 22.890959,20.7340803 21.6126126,19.0976846 C21.1914414,18.5585485 17.7477477,17.9423938 16.8063063,17.7113357 C15.8648649,17.4802775 14.4774775,16.0169092 14.4774775,16.0169092 C14.4774775,16.0169092 14.1554054,14.155607 14.4774775,13.552289 C15.0720721,13.1928652 15.5128416,10.3065917 15.8648649,9.64997355 C16.2168881,8.99335538 16.2612613,9.6499739 16.6576577,7.95554711 C16.6576577,7.2110264 16.2612613,6.97996825 16.2612613,6.97996825 L16.4594595,5.5422731 C16.4594595,5.5422731 16.8660162,3.78871183 15.3198198,2.25611271 C14.9739716,1.9133059 14.7747748,1.87101582 14.204955,2.02505455 C14.0045372,1.21508302 13.0900901,1.02380261 12.0990991,1.02380261 Z" id="Path-11"></path>
        </g>
    </g>
</svg>