<?xml version="1.0" encoding="UTF-8" standalone="no"?>
<svg width="24px" height="24px" viewBox="0 0 24 24" version="1.1" xmlns="http://www.w3.org/2000/svg" xmlns:xlink="http://www.w3.org/1999/xlink">
    <!-- Generator: Sketch 3.8.3 (29802) - http://www.bohemiancoding.com/sketch -->
    <title>cart</title>
    <desc>Created with Sketch.</desc>
    <defs></defs>
    <g id="Page-1" stroke="none" stroke-width="1" fill="none" fill-rule="evenodd">
        <g id="cart" fill="#FFFFFF">
            <g id="Group" transform="translate(0.000000, 3.000000)">
                <path d="M6,13 L3,2 L22,2 L19,13 L6,13 Z M6.43933983,6.56066017 C5.85355339,5.97487373 5.85355339,5.02512627 6.43933983,4.43933983 C7.02512627,3.85355339 7.97487373,3.85355339 8.56066017,4.43933983 L11.5606602,8.43933983 C12.1464466,9.02512627 12.1464466,9.97487373 11.5606602,10.5606602 C10.9748737,11.1464466 10.0251263,11.1464466 9.43933983,10.5606602 L6.43933983,6.56066017 Z M12.4393398,6.56066017 C11.8535534,5.97487373 11.8535534,5.02512627 12.4393398,4.43933983 C13.0251263,3.85355339 13.9748737,3.85355339 14.5606602,4.43933983 L17.5606602,8.43933983 C18.1464466,9.02512627 18.1464466,9.97487373 17.5606602,10.5606602 C16.9748737,11.1464466 16.0251263,11.1464466 15.4393398,10.5606602 L12.4393398,6.56066017 Z" id="Rectangle"></path>
                <circle id="Oval" cx="8" cy="17" r="2"></circle>
                <circle id="Oval" cx="17" cy="17" r="2"></circle>
                <path d="M6,0.00307711088 L5,2 L0.999807492,2 C0.447629061,2 0,1.55613518 0,1 L0,1 C0,0.44771525 0.45097518,0.000231283438 0.990777969,0.000508122278 L6,0.00307711088 Z" id="Path" transform="translate(3.000000, 1.000000) scale(1, -1) translate(-3.000000, -1.000000) "></path>
            </g>
        </g>
    </g>
</svg>