<?xml version="1.0" encoding="UTF-8" standalone="no"?>
<svg width="69px" height="12px" viewBox="0 0 69 12" version="1.1" xmlns="http://www.w3.org/2000/svg" xmlns:xlink="http://www.w3.org/1999/xlink">
    <!-- Generator: Sketch 3.8.3 (29802) - http://www.bohemiancoding.com/sketch -->
    <title>rating-empty</title>
    <desc>Created with Sketch.</desc>
    <defs></defs>
    <g id="Page-1" stroke="none" stroke-width="1" fill="none" fill-rule="evenodd">
        <g id="rating-empty" fill="#D8D8D8">
            <polygon id="Star-1" points="6.5 9.75 2.67939586 11.7586105 3.40906632 7.50430523 0.318132644 4.49138954 4.58969793 3.87069477 6.5 0 8.41030207 3.87069477 12.6818674 4.49138954 9.59093368 7.50430523 10.3206041 11.7586105"></polygon>
            <polygon id="Star-1" points="34.5 9.75 30.6793959 11.7586105 31.4090663 7.50430523 28.3181326 4.49138954 32.5896979 3.87069477 34.5 0 36.4103021 3.87069477 40.6818674 4.49138954 37.5909337 7.50430523 38.3206041 11.7586105"></polygon>
            <polygon id="Star-1" points="48.5 9.75 44.6793959 11.7586105 45.4090663 7.50430523 42.3181326 4.49138954 46.5896979 3.87069477 48.5 0 50.4103021 3.87069477 54.6818674 4.49138954 51.5909337 7.50430523 52.3206041 11.7586105"></polygon>
            <polygon id="Star-1" points="62.5 9.75 58.6793959 11.7586105 59.4090663 7.50430523 56.3181326 4.49138954 60.5896979 3.87069477 62.5 0 64.4103021 3.87069477 68.6818674 4.49138954 65.5909337 7.50430523 66.3206041 11.7586105"></polygon>
            <polygon id="Star-1" points="20.5 9.75 16.6793959 11.7586105 17.4090663 7.50430523 14.3181326 4.49138954 18.5896979 3.87069477 20.5 0 22.4103021 3.87069477 26.6818674 4.49138954 23.5909337 7.50430523 24.3206041 11.7586105"></polygon>
        </g>
    </g>
</svg>