<?xml version="1.0" encoding="UTF-8" standalone="no"?>
<svg width="24px" height="24px" viewBox="0 0 24 24" version="1.1" xmlns="http://www.w3.org/2000/svg" xmlns:xlink="http://www.w3.org/1999/xlink">
    <!-- Generator: Sketch 3.8.3 (29802) - http://www.bohemiancoding.com/sketch -->
    <title>search</title>
    <desc>Created with Sketch.</desc>
    <defs></defs>
    <g id="Page-1" stroke="none" stroke-width="1" fill="none" fill-rule="evenodd">
        <g id="search" fill="#FFFFFF">
            <path d="M15.0851146,17.2690048 C13.5209298,18.3938771 11.6019205,19.05636 9.52817998,19.05636 C4.26591148,19.05636 0,14.7904485 0,9.52817998 C0,4.26591148 4.26591148,0 9.52817998,0 C14.7904485,0 19.05636,4.26591148 19.05636,9.52817998 C19.05636,11.6019205 18.3938771,13.5209298 17.2690048,15.0851146 L24,21.1750626 L21.1750626,24 L15.0851146,17.2690048 Z M9.52817998,16.5489442 C13.405641,16.5489442 16.5489442,13.405641 16.5489442,9.52817998 C16.5489442,5.65071898 13.405641,2.50741578 9.52817998,2.50741578 C5.65071898,2.50741578 2.50741578,5.65071898 2.50741578,9.52817998 C2.50741578,13.405641 5.65071898,16.5489442 9.52817998,16.5489442 Z" id="Path-2"></path>
        </g>
    </g>
</svg>